<svg id="Lager_1" xmlns="http://www.w3.org/2000/svg" version="1.2" viewBox="0 0 1700.7 277.8">
  
  <g>
    <path d="M71.6,260.8L11.9,50.8h64.8l24.6,94.8c1.6,6.2,3,12.2,4,17.8,1.1,5.7,2,11,2.5,15.8.6,4.8,1,9.2,1.4,13.2.3,4,.5,7.4.5,10.2h-4.8c0-5,0-10.3.5-16,.3-5.7,1-11.9,2.2-18.6,1.2-6.7,3.2-14.2,6-22.3l26.1-74.1h49.5l26.1,74.1c2.8,8,5,15.3,6.6,22s2.8,12.9,3.5,18.6c.7,5.7,1,11.2,1,16.3h-4.5v-8.1c0-3,0-6.3.2-9.9,0-3.6.3-7.5.8-11.5s1-8.5,1.8-13,1.8-9.4,3-14.4l24.6-94.8h62.7l-60.3,210h-51l-45.6-113.1h8.1l-40.5,113.1h-54.1Z" fill="#050917"/>
    <path d="M364.4,71.2c-10.8,0-19.2-2.5-25.3-7.5s-9.2-12.1-9.2-21.3,3.1-15.3,9.3-20.7c6.2-5.4,14.6-8.1,25.2-8.1s19.2,2.5,25.3,7.5,9.2,12.1,9.2,21.3-3.1,15.3-9.3,20.7c-6.2,5.4-14.6,8.1-25.2,8.1ZM333.8,260.8V100.3h60.9v160.5h-60.9Z" fill="#050917"/>
    <path d="M485,260.8l-66.6-160.5h67.8l33.3,119.7h-16.2l33-119.7h67.8l-69.9,160.5h-49.2,0Z" fill="#050917"/>
    <path d="M658.1,71.2c-10.8,0-19.2-2.5-25.3-7.5s-9.2-12.1-9.2-21.3,3.1-15.3,9.3-20.7c6.2-5.4,14.6-8.1,25.2-8.1s19.2,2.5,25.3,7.5,9.2,12.1,9.2,21.3-3.1,15.3-9.3,20.7c-6.2,5.4-14.6,8.1-25.2,8.1ZM627.5,260.8V100.3h60.9v160.5h-60.9Z" fill="#050917"/>
    <path d="M788,264.1c-13.2,0-24.9-3.5-35.2-10.7-10.3-7.1-18.4-16.9-24.3-29.4-5.9-12.5-8.8-27-8.8-43.3s3-30.6,9-43.2c6-12.6,14.3-22.5,24.8-29.7s22.6-10.8,36.2-10.8,13.3,1,19.5,2.9,11.8,4.6,16.8,8.1,9.2,7.6,12.8,12.3,5.8,9.8,7.1,15.2l-13.5,4.2V38.8h61.2v222h-54.9l-4.8-35.4,12.3,2.7c-1,5.2-3.2,10-6.6,14.4s-7.7,8.2-12.8,11.4-10.9,5.7-17.6,7.5c-6.6,1.8-13.6,2.7-21,2.7h-.2ZM806.3,214.6c5.8,0,10.8-1.3,14.8-4s7.2-6.5,9.3-11.5,3.2-11.1,3.2-18.3-1.1-13.3-3.2-18.5c-2.1-5.1-5.2-9-9.3-11.5-4.1-2.6-9.1-3.9-14.8-3.9s-10.7,1.3-14.7,3.9c-4,2.6-7.1,6.5-9.2,11.5s-3.2,11.2-3.2,18.5,1.1,13.3,3.2,18.3,5.2,8.8,9.2,11.5,8.9,4,14.7,4Z" fill="#050917"/>
    <path d="M1010.3,260.8l84.3-210h51l83.7,210h-64.2l-33.6-91.8c-2.2-6.2-4.1-11.5-5.7-15.9s-3-8.5-4.2-12.5-2.4-8.1-3.6-12.6-2.4-9.8-3.6-16h10.2c-1.2,6.2-2.4,11.5-3.6,16-1.2,4.5-2.4,8.7-3.8,12.6-1.3,3.9-2.8,8-4.5,12.5s-3.7,9.7-5.8,15.9l-33.6,91.8h-63ZM1052.3,229.6l18.9-44.1h97.5l17.1,44.1h-133.5Z" fill="#050917"/>
    <path d="M1244.3,260.8V100.3h56.4l3.6,53.4-13.5-8.4c2.6-9.2,6.7-17.5,12.3-24.8,5.6-7.3,12.3-13,20.2-17.2s16.3-6.3,25.3-6.3,7,.2,10.2.8,6.3,1.1,9.3,2l-16.8,67.5c-2-1.4-5.2-2.7-9.4-3.9-4.3-1.2-8.9-1.8-13.9-1.8s-6.8.5-9.8,1.7c-2.9,1.1-5.3,2.8-7.2,5-1.9,2.2-3.3,4.8-4.3,7.8s-1.5,6.5-1.5,10.5v74.4h-60.9v-.2Z" fill="#050917"/>
    <path d="M1457.9,263.8c-16.2,0-30.7-3.6-43.3-10.8s-22.7-17-30-29.5-10.9-26.8-10.9-43,3.7-30.5,10.9-43c7.3-12.5,17.3-22.3,30-29.5s27.2-10.8,43.3-10.8,27.7,2.2,39.9,6.6c12.2,4.4,22.1,10.8,29.7,19.2l-33,39c-2.2-2.4-4.8-4.6-7.8-6.6s-6.4-3.5-10.2-4.7c-3.8-1.1-8.2-1.7-13.2-1.7s-11.2,1.3-15.8,3.9c-4.5,2.6-7.9,6.2-10.3,11s-3.6,10.2-3.6,16.3,1.2,11.3,3.4,16c2.3,4.7,5.7,8.5,10.2,11.2s9.8,4.2,16.1,4.2,9.4-.5,13.2-1.5c3.8-1,7.2-2.5,10.2-4.3,3-1.9,5.6-4.2,7.8-6.8l32.7,39.3c-7.4,8.2-17.2,14.5-29.4,18.9-12.2,4.4-25.5,6.6-39.9,6.6h0Z" fill="#050917"/>
  </g>
  <path d="M1625.8,182.4c-4.2-4.8-3-11-3.2-17-.6-14.4-.6-28.7-4.5-42.3-8-28.3-38.7-16.2-57.1-23.2,12.2-5.8,39.4-.9,49.9-13.1,6.9-8,8.9-19.4,9.4-29.8l1.7-32.8c0-2.4,2.7-7,4.7-5.6,7.2,15.4,1.9,30.2,8.9,56,7.5,27.7,36.8,17.9,55.7,25.2-19.9,7.5-51.4-3.8-58.6,25.2-3.2,12.8-3.6,25.9-3.9,39.5,0,5.9,1,11.6-2.9,18h0Z" fill="#050917"/>
</svg>